<svg xmlns="http://www.w3.org/2000/svg" viewBox="0 0 19.62 24.46"><defs><style>.cls-1{fill:#ed8d4c;}.cls-2{fill:#edc264;}</style></defs><title>icon_fire2</title><g id="Layer_2" data-name="Layer 2"><g id="CRM_Main" data-name="CRM Main"><path class="cls-1" d="M3.11,22c-2-1.81-3.48-4.9-3-9.93,0,0,3.59,4,3.56,3S1.82,5.93,10.7,0c0,0,1,9.28,2.2,9.16A3.8,3.8,0,0,0,16,6.61s2.84,3,1.78,8.64a6.45,6.45,0,0,0,1.81-1.7s1.26,8-7,10.48A9.93,9.93,0,0,1,3.11,22Z"/><path class="cls-2" d="M7.53,22.41a4.13,4.13,0,0,1-1.11-3.67s1.32,1.48,1.31,1.11a5.47,5.47,0,0,1,2.61-5.57s.38,3.43.81,3.38a1.4,1.4,0,0,0,1.13-.94,3.68,3.68,0,0,1,.65,3.19,2.25,2.25,0,0,0,.67-.63A3.5,3.5,0,0,1,11,23.15,3.68,3.68,0,0,1,7.53,22.41Z"/></g></g></svg>