<svg xmlns="http://www.w3.org/2000/svg" viewBox="0 0 14.47 17.09"><defs><style>.cls-1{fill:#ccc;}</style></defs><title>Icon_Lead</title><g id="Layer_2" data-name="Layer 2"><g id="Layer_2-2" data-name="Layer 2"><path class="cls-1" d="M1.48,14.56a7.18,7.18,0,0,0,5.75,2.54,7.38,7.38,0,0,0,5-1.78,6,6,0,0,0,2-3.11C15.24,8.14,13,5,10.2,3a7,7,0,0,1-.41,2.44C8.69,4.1,7.47,2.65,7.47,0,4.89,1.78,2.78,4.63,3.27,8.25A5.52,5.52,0,0,1,1.91,5.86c-1.71,2.05-2.73,5-1,7.86a4.89,4.89,0,0,0,.62.84ZM7.28,9c0,2.59,2.08,3.08,2.12,5A2,2,0,0,1,7.28,16.1c-1.09,0-1.89-1.16-2.12-2.12A4.7,4.7,0,0,1,7.28,9Zm0,0"/></g></g></svg>