<svg xmlns="http://www.w3.org/2000/svg" viewBox="0 0 22 22"><defs><style>.cls-1{fill:#00b900;}.cls-2{fill:#fff;}</style></defs><title>Icon_Line</title><g id="Layer_2" data-name="Layer 2"><g id="Layer_2-2" data-name="Layer 2"><g id="TYPE_A" data-name="TYPE A"><circle class="cls-1" cx="11" cy="11" r="11"/><path class="cls-2" d="M8.69,8.39H7.92a.21.21,0,0,0-.21.21v4.79a.21.21,0,0,0,.21.21h.77a.21.21,0,0,0,.21-.21V8.61a.21.21,0,0,0-.21-.21"/><path class="cls-2" d="M14,8.39h-.77a.21.21,0,0,0-.21.21v2.84l-2.19-3,0,0H9.87a.21.21,0,0,0-.21.21v4.79a.21.21,0,0,0,.21.21h.77a.21.21,0,0,0,.21-.21V10.55l2.2,3,.05.05H14a.21.21,0,0,0,.21-.21V8.61A.21.21,0,0,0,14,8.39"/><path class="cls-2" d="M6.83,12.41H4.74V8.61a.21.21,0,0,0-.21-.21H3.75a.21.21,0,0,0-.21.21v4.79h0a.21.21,0,0,0,.06.15h0a.21.21,0,0,0,.15.06H6.83A.21.21,0,0,0,7,13.39v-.77a.21.21,0,0,0-.21-.21"/><path class="cls-2" d="M18.25,9.59a.21.21,0,0,0,.21-.21V8.61a.21.21,0,0,0-.21-.21H15.17a.21.21,0,0,0-.15.06h0a.21.21,0,0,0-.06.15h0v4.79h0a.21.21,0,0,0,.06.15h0a.21.21,0,0,0,.15.06h3.08a.21.21,0,0,0,.21-.21v-.77a.21.21,0,0,0-.21-.21H16.16V11.6h2.09a.21.21,0,0,0,.21-.21v-.77a.21.21,0,0,0-.21-.21H16.16V9.59Z"/></g></g></g></svg>