<svg xmlns="http://www.w3.org/2000/svg" viewBox="0 0 22 22"><defs><style>.cls-1{fill:#666;}.cls-2{fill:#fff;}</style></defs><title>Icon_Email</title><g id="Layer_2" data-name="Layer 2"><g id="Layer_2-2" data-name="Layer 2"><circle class="cls-1" cx="11" cy="11" r="11"/><path class="cls-2" d="M17.1,5H4.9A2.19,2.19,0,0,0,2.71,7.14v7.72A2.19,2.19,0,0,0,4.9,17.05H17.1a2.19,2.19,0,0,0,2.19-2.19V7.14A2.19,2.19,0,0,0,17.1,5Zm-.76,1.71-5.24,4.58L5.85,6.66Zm1.24,8.19a.48.48,0,0,1-.48.48H4.9a.48.48,0,0,1-.48-.48V7.7l6.67,5.83,6.48-5.66Z"/></g></g></svg>